<mxfile host="app.diagrams.net" modified="2022-03-07T03:10:41.040Z" agent="5.0 (X11)" etag="xDZiRjsl50GpA2UCBbYD" version="15.1.4" type="github">
  <diagram id="cstUYs0_MrwpeLKSXvVJ" name="Page-1">
    <mxGraphModel dx="865" dy="703" grid="1" gridSize="10" guides="1" tooltips="1" connect="1" arrows="1" fold="1" page="1" pageScale="1" pageWidth="850" pageHeight="1100" math="0" shadow="0">
      <root>
        <mxCell id="0" />
        <mxCell id="1" parent="0" />
        <mxCell id="yYByWPhsurXCCLLeMajM-9" value="" style="sketch=0;points=[[0,0,0],[0.25,0,0],[0.5,0,0],[0.75,0,0],[1,0,0],[1,0.25,0],[1,0.5,0],[1,0.75,0],[1,1,0],[0.75,1,0],[0.5,1,0],[0.25,1,0],[0,1,0],[0,0.75,0],[0,0.5,0],[0,0.25,0]];rounded=1;absoluteArcSize=1;arcSize=2;html=1;strokeColor=none;gradientColor=none;shadow=0;dashed=0;fontSize=12;fontColor=#9E9E9E;align=left;verticalAlign=top;spacing=10;spacingTop=-4;fillColor=#EFEBE9;" parent="1" vertex="1">
          <mxGeometry x="150" y="204" width="290" height="286" as="geometry" />
        </mxCell>
        <mxCell id="yYByWPhsurXCCLLeMajM-30" value="&lt;div&gt;GCP HTTPS&lt;/div&gt;&lt;div&gt;LoadBalancer&lt;br&gt;&lt;/div&gt;" style="sketch=0;html=1;fillColor=#5184F3;strokeColor=none;verticalAlign=top;labelPosition=center;verticalLabelPosition=bottom;align=center;spacingTop=-6;fontSize=11;fontStyle=1;shape=mxgraph.gcp2.hexIcon;prIcon=cloud_external_ip_addresses" parent="1" vertex="1">
          <mxGeometry x="300" y="100" width="66" height="58.5" as="geometry" />
        </mxCell>
        <mxCell id="hQGbkkrR4lbeE7w-v3Qx-1" value="" style="endArrow=classic;html=1;fontColor=#000000;strokeColor=#000000;entryX=0.5;entryY=0.16;entryDx=0;entryDy=0;entryPerimeter=0;" parent="1" target="yYByWPhsurXCCLLeMajM-30" edge="1">
          <mxGeometry width="50" height="50" relative="1" as="geometry">
            <mxPoint x="333" y="50" as="sourcePoint" />
            <mxPoint x="50" y="300" as="targetPoint" />
          </mxGeometry>
        </mxCell>
        <mxCell id="hQGbkkrR4lbeE7w-v3Qx-2" value="Kubernetes&#xa;Engine" style="sketch=0;html=1;fillColor=#5184F3;strokeColor=none;verticalAlign=top;labelPosition=center;verticalLabelPosition=bottom;align=center;spacingTop=-6;fontSize=11;fontStyle=1;fontColor=#999999;shape=mxgraph.gcp2.hexIcon;prIcon=container_engine" parent="1" vertex="1">
          <mxGeometry x="124" y="180" width="66" height="58.5" as="geometry" />
        </mxCell>
        <mxCell id="hQGbkkrR4lbeE7w-v3Qx-4" value="Ingress" style="rounded=0;whiteSpace=wrap;html=1;fontColor=#000000;" parent="1" vertex="1">
          <mxGeometry x="200" y="250" width="60" height="30" as="geometry" />
        </mxCell>
        <mxCell id="hQGbkkrR4lbeE7w-v3Qx-5" value="Ingress Gateway" style="rounded=0;whiteSpace=wrap;html=1;fontColor=#000000;" parent="1" vertex="1">
          <mxGeometry x="279" y="294" width="110" height="30" as="geometry" />
        </mxCell>
        <mxCell id="hQGbkkrR4lbeE7w-v3Qx-6" value="Gateway" style="rounded=0;whiteSpace=wrap;html=1;fontColor=#000000;" parent="1" vertex="1">
          <mxGeometry x="279" y="334" width="110" height="30" as="geometry" />
        </mxCell>
        <mxCell id="hQGbkkrR4lbeE7w-v3Qx-11" value="" style="rounded=0;whiteSpace=wrap;html=1;fontColor=#000000;" parent="1" vertex="1">
          <mxGeometry x="290" y="386" width="110" height="30" as="geometry" />
        </mxCell>
        <mxCell id="hQGbkkrR4lbeE7w-v3Qx-8" value="" style="rounded=0;whiteSpace=wrap;html=1;fontColor=#000000;" parent="1" vertex="1">
          <mxGeometry x="284" y="380" width="110" height="30" as="geometry" />
        </mxCell>
        <mxCell id="hQGbkkrR4lbeE7w-v3Qx-7" value="VirtualService" style="rounded=0;whiteSpace=wrap;html=1;fontColor=#000000;" parent="1" vertex="1">
          <mxGeometry x="279" y="374" width="110" height="30" as="geometry" />
        </mxCell>
        <mxCell id="hQGbkkrR4lbeE7w-v3Qx-12" value="" style="rounded=0;whiteSpace=wrap;html=1;fontColor=#000000;" parent="1" vertex="1">
          <mxGeometry x="291" y="436" width="110" height="30" as="geometry" />
        </mxCell>
        <mxCell id="hQGbkkrR4lbeE7w-v3Qx-13" value="" style="rounded=0;whiteSpace=wrap;html=1;fontColor=#000000;" parent="1" vertex="1">
          <mxGeometry x="285" y="430" width="110" height="30" as="geometry" />
        </mxCell>
        <mxCell id="hQGbkkrR4lbeE7w-v3Qx-14" value="Service" style="rounded=0;whiteSpace=wrap;html=1;fontColor=#000000;" parent="1" vertex="1">
          <mxGeometry x="280" y="424" width="110" height="30" as="geometry" />
        </mxCell>
        <mxCell id="hQGbkkrR4lbeE7w-v3Qx-15" value="" style="endArrow=block;dashed=1;html=1;fontColor=#000000;strokeColor=#000000;entryX=0.175;entryY=0.5;entryDx=0;entryDy=0;entryPerimeter=0;exitX=0.5;exitY=0;exitDx=0;exitDy=0;endFill=1;" parent="1" source="hQGbkkrR4lbeE7w-v3Qx-4" target="yYByWPhsurXCCLLeMajM-30" edge="1">
          <mxGeometry width="50" height="50" relative="1" as="geometry">
            <mxPoint x="240" y="250" as="sourcePoint" />
            <mxPoint x="310" y="310" as="targetPoint" />
            <Array as="points">
              <mxPoint x="230" y="129" />
            </Array>
          </mxGeometry>
        </mxCell>
        <mxCell id="hQGbkkrR4lbeE7w-v3Qx-16" value="creates" style="text;html=1;strokeColor=none;fillColor=none;align=center;verticalAlign=middle;whiteSpace=wrap;rounded=0;fontColor=#000000;" parent="1" vertex="1">
          <mxGeometry x="210" y="110" width="40" height="20" as="geometry" />
        </mxCell>
        <mxCell id="hQGbkkrR4lbeE7w-v3Qx-17" value="" style="endArrow=classic;html=1;fontColor=#000000;strokeColor=#000000;" parent="1" edge="1">
          <mxGeometry width="50" height="50" relative="1" as="geometry">
            <mxPoint x="333" y="190" as="sourcePoint" />
            <mxPoint x="333" y="290" as="targetPoint" />
          </mxGeometry>
        </mxCell>
        <mxCell id="hQGbkkrR4lbeE7w-v3Qx-19" value="&lt;div&gt;Public&lt;/div&gt;&lt;div&gt;End Users&lt;/div&gt;" style="text;html=1;strokeColor=none;fillColor=none;align=center;verticalAlign=middle;whiteSpace=wrap;rounded=0;fontColor=#000000;" parent="1" vertex="1">
          <mxGeometry x="340" y="60" width="40" height="20" as="geometry" />
        </mxCell>
        <mxCell id="hQGbkkrR4lbeE7w-v3Qx-23" value="&lt;div style=&quot;font-size: 10px&quot;&gt;Network&lt;/div&gt;&lt;div style=&quot;font-size: 10px&quot;&gt;Endpoint&lt;/div&gt;&lt;div style=&quot;font-size: 10px&quot;&gt;Group&lt;/div&gt;&lt;div style=&quot;font-size: 10px&quot;&gt;(NEG)&lt;br style=&quot;font-size: 10px&quot;&gt;&lt;/div&gt;" style="text;html=1;strokeColor=none;fillColor=none;align=center;verticalAlign=middle;whiteSpace=wrap;rounded=0;fontColor=#000000;fontSize=10;" parent="1" vertex="1">
          <mxGeometry x="340" y="230" width="40" height="20" as="geometry" />
        </mxCell>
      </root>
    </mxGraphModel>
  </diagram>
</mxfile>
